# xmcd
#
# Track frame offsets: 
#        150
#        16377
#        37329
#        51882
#        70755
#        95244
#        107826
#        128373
#        153348
#        169899
#
# Disc length: 2495 seconds
#
# Revision: 2
# Processed by: cddbd v1.5.2PL0 Copyright (c) Steve Scherf et al.
# Submitted via: ExactAudioCopy v0.99pb5
#
DISCID=8509bd0a
DTITLE=Antony Santos - Ay!  Ven
DYEAR=2006
DGENRE=Bachata
TTITLE0=Amorcito Ven
TTITLE1=Ay! Ven
TTITLE2=Hoy Te Vuelvo A Enamorar
TTITLE3=Amarga Pena
TTITLE4=Yo Vote A Mi Negra
TTITLE5=Te Tuve Y Te Perdi
TTITLE6=A Ti
TTITLE7=Cambia De Vida
TTITLE8=Para Bien O Para Mal
TTITLE9=El Chico Del Apartamento 5-12
EXTD=CD COPIADO DE FIOR
EXTT0=
EXTT1=
EXTT2=
EXTT3=
EXTT4=
EXTT5=
EXTT6=
EXTT7=
EXTT8=
EXTT9=
PLAYORDER=
